<svg xmlns="http://www.w3.org/2000/svg" viewBox="0 0 132 132">
  <defs>
    <style>
      .cls-1 {
        fill: #119dff;
      }

      .cls-2 {
        fill: #25fefd;
      }

      .cls-3 {
        fill: #fff;
      }
    </style>
  </defs>
  <title>plotly-logomark</title>
  <g id="symbol">
    <rect class="cls-1" width="132" height="132" rx="6" ry="6"/>
    <circle class="cls-2" cx="78" cy="54" r="6"/>
    <circle class="cls-2" cx="102" cy="30" r="6"/>
    <circle class="cls-2" cx="78" cy="30" r="6"/>
    <circle class="cls-2" cx="54" cy="30" r="6"/>
    <circle class="cls-2" cx="30" cy="30" r="6"/>
    <circle class="cls-2" cx="30" cy="54" r="6"/>
    <path class="cls-3" d="M30,72a6,6,0,0,0-6,6v24a6,6,0,0,0,12,0V78A6,6,0,0,0,30,72Z"/>
    <path class="cls-3" d="M78,72a6,6,0,0,0-6,6v24a6,6,0,0,0,12,0V78A6,6,0,0,0,78,72Z"/>
    <path class="cls-3" d="M54,48a6,6,0,0,0-6,6v48a6,6,0,0,0,12,0V54A6,6,0,0,0,54,48Z"/>
    <path class="cls-3" d="M102,48a6,6,0,0,0-6,6v48a6,6,0,0,0,12,0V54A6,6,0,0,0,102,48Z"/>
  </g>
</svg>
